<svg xmlns="http://www.w3.org/2000/svg" viewBox="0 0 35 35"><path d="M1 1h7v7h-7zM9 1h1v1h-1zM13 1h3v1h-3zM18 1h2v2h-1v-1h-1zM23 1h2v1h-1v1h-1zM27 1h7v7h-7zM2 2v5h5v-5zM11 2h2v2h-1v-1h-1zM17 2h1v1h1v3h-1v-2h-2v-1h1zM21 2h1v1h-1zM25 2h1v1h-1zM28 2v5h5v-5zM3 3h3v3h-3zM9 3h1v1h-1zM14 3h1v1h-1zM20 3h1v2h-1zM22 3h1v1h-1zM24 3h1v1h1v2h-1v-1h-2v-1h1zM29 3h3v3h-3zM10 4h2v1h1v-1h1v2h-1v1h-1v2h1v-2h1v3h1v1h-2v1h2v2h-1v-1h-2v-2h-1v3h3v1h-2v1h1v1h-2v-2h-1v-1h-3v1h3v3h-1v-1h-1v-1h-2v-1h-1v2h-1v-2h-1v-2h1v1h2v-2h1v1h2v-2h-1v-1h-1v-1h2v1h2v-5h-1zM16 5h1v2h-1v1h-1v-1h-1v-1h2zM21 5h1v3h-1zM9 6h1v2h-1zM19 6h1v3h-1zM17 7h1v5h-1v1h1v1h-2v-4h1v-1h-1v-1h1zM23 7h1v1h1v-1h1v2h-3zM1 9h1v2h4v1h-4v1h-1zM3 9h1v1h-1zM21 9h2v1h-1v1h-1v1h-2v-1h1v-1h1zM28 9h1v2h3v1h-1v2h1v-2h1v-3h1v7h-1v-1h-1v1h-1v2h-1v-2h-1v-1h1v-3h-2v-1h-1v-1h1zM31 9h1v1h-1zM24 10h1v2h-1zM7 11h1v1h-1zM22 11h1v1h-1zM26 11h1v1h-1zM21 12h1v2h1v1h-1v2h-3v-1h1v-1h-1v-2h1v1h1zM25 12h1v3h1v-2h1v1h1v1h-1v1h-1v1h-1v-1h-2v-3h1zM2 15h1v2h-1v1h-1v-2h1zM14 15h1v1h-1zM16 15h3v1h-2v1h1v2h1v-1h2v2h-4v2h1v1h-1v1h-1v-1h-1v-1h1v-1h-2v-1h1v-1h1v-2h-1v-1h1zM32 16h1v1h-1zM3 17h1v2h-1v2h-1v1h-1v-2h1v-2h1zM6 17h2v1h-1v1h-1zM13 17h1v3h-1v-1h-2v1h2v1h1v3h-1v1h1v1h-1v2h-1v-3h-1v-2h-2v1h1v1h1v1h-1v2h-1v-2h-5v-2h1v-1h-1v1h-3v-1h2v-1h1v-3h2v1h-1v2h1v2h1v1h1v-1h-1v-1h1v-1h1v-1h-1v-1h-1v-1h1v-1h1v2h1v-2h3zM22 17h1v1h-1zM24 17h1v1h2v-1h1v1h1v1h-2v2h-1v-2h-1v3h2v-1h1v-1h2v1h-1v2h-2v2h1v-1h1v1h1v-1h1v2h-1v1h1v1h-1v1h1v1h-1v2h1v2h-1v-1h-2v-2h1v-1h-3v1h-2v-3h1v-2h-2v-1h1v-1h-1v-2h1v-1h-1v-1h-1v-1h1v-1h1zM33 17h1v3h-1v-1h-1v1h-1v-2h2zM6 20h1v1h1v1h-2zM10 21v1h2v1h1v-1h-1v-1zM18 21h1v1h-1zM20 21h2v2h-1v1h-2v-1h1zM32 21h2v4h-1v1h-1v-2h1v-1h-1v1h-1v-2h1zM29 23h1v1h-1zM17 24h1v1h-1zM1 25h2v1h-2zM16 25h1v1h3v-1h2v3h-2v-1h-1v1h-1v-1h-1v1h-2v2h-2v3h1v-2h1v-1h1v-1h2v2h-1v1h-1v1h1v-1h1v2h-7v-1h-1v-1h2v-1h-2v-2h1v1h1v-1h1v-1h1v-2h2zM26 26v3h3v-3zM31 26h1v1h-1zM1 27h7v7h-7zM23 27h1v1h-1zM27 27h1v1h-1zM33 27h1v1h-1zM2 28v5h5v-5zM11 28h1v1h-1zM19 28h1v1h-1zM32 28h1v2h1v2h-2zM3 29h3v3h-3zM20 29h2v3h-1v2h-1zM9 31h1v1h-1zM18 31h1v1h-1zM25 32h1v2h-2v-1h1zM9 33h1v1h-1zM33 33h1v1h-1z"/></svg>